<svg aria-hidden="true" style="position: absolute; width: 0; height: 0; overflow: hidden;" version="1.1" xmlns="http://www.w3.org/2000/svg" xmlns:xlink="http://www.w3.org/1999/xlink">
<defs>
<symbol id="icon-linkedin" viewBox="0 0 32 32">
<title>icon-linkedin</title>
<path d="M25.6 4.267h-19.2c-1.179 0-2.133 0.955-2.133 2.133v19.2c0 1.179 0.955 2.133 2.133 2.133h19.2c1.179 0 2.133-0.955 2.133-2.133v-19.2c0-1.179-0.955-2.133-2.133-2.133zM11.684 23.467h-3.147v-10.125h3.147v10.125zM10.079 11.894c-1.014 0-1.835-0.822-1.835-1.835s0.821-1.834 1.835-1.834c1.011 0 1.834 0.822 1.834 1.834 0 1.012-0.822 1.835-1.834 1.835zM23.471 23.467h-3.145v-4.924c0-1.174-0.021-2.685-1.635-2.685-1.637 0-1.889 1.279-1.889 2.599v5.009h-3.145v-10.125h3.019v1.383h0.043c0.42-0.796 1.446-1.635 2.977-1.635 3.186 0 3.775 2.097 3.775 4.823v5.553z"></path>
</symbol>
<symbol id="icon-twitter" viewBox="0 0 32 32">
<title>icon-twitter</title>
<path d="M29.867 7.399c-1.021 0.453-2.117 0.758-3.268 0.896 1.175-0.704 2.077-1.819 2.501-3.148-1.099 0.652-2.317 1.125-3.614 1.381-1.038-1.106-2.516-1.797-4.153-1.797-3.142 0-5.69 2.548-5.69 5.69 0 0.446 0.051 0.881 0.147 1.296-4.729-0.237-8.921-2.502-11.728-5.946-0.489 0.841-0.769 1.818-0.769 2.862 0 1.973 1.004 3.715 2.53 4.735-0.932-0.030-1.81-0.286-2.577-0.711 0 0.025 0 0.047 0 0.071 0 2.757 1.961 5.057 4.564 5.579-0.477 0.13-0.98 0.199-1.5 0.199-0.366 0-0.723-0.036-1.070-0.101 0.724 2.26 2.826 3.906 5.315 3.952-1.947 1.526-4.4 2.436-7.067 2.436-0.459 0-0.912-0.027-1.358-0.080 2.518 1.614 5.508 2.556 8.722 2.556 10.466 0 16.188-8.67 16.188-16.189 0-0.246-0.005-0.492-0.016-0.736 1.113-0.803 2.078-1.805 2.841-2.945z"></path>
</symbol>
<symbol id="icon-instagram" viewBox="0 0 32 32">
<title>icon-instagram</title>
<path d="M11.469 5c-3.551 0-6.469 2.914-6.469 6.469v9.063c0 3.551 2.914 6.469 6.469 6.469h9.063c3.551 0 6.469-2.914 6.469-6.469v-9.063c0-3.551-2.914-6.469-6.469-6.469zM11.469 7h9.063c2.473 0 4.469 1.996 4.469 4.469v9.063c0 2.473-1.996 4.469-4.469 4.469h-9.063c-2.473 0-4.469-1.996-4.469-4.469v-9.063c0-2.473 1.996-4.469 4.469-4.469zM21.906 9.188c-0.504 0-0.906 0.402-0.906 0.906s0.402 0.906 0.906 0.906c0.504 0 0.906-0.402 0.906-0.906s-0.402-0.906-0.906-0.906zM16 10c-3.301 0-6 2.699-6 6s2.699 6 6 6c3.301 0 6-2.699 6-6s-2.699-6-6-6zM16 12c2.223 0 4 1.777 4 4s-1.777 4-4 4c-2.223 0-4-1.777-4-4s1.777-4 4-4z"></path>
</symbol>
</defs>
</svg>
